<svg width="653" height="436" viewBox="0 0 653 436" fill="none" xmlns="http://www.w3.org/2000/svg">
<path d="M538.397 197.507C533.848 196.792 529.644 194.652 526.388 191.396C523.131 188.14 520.992 183.935 520.276 179.386C502.482 67.4229 421.237 0 326.497 0C238.423 0 179.761 57.7367 156.498 118.575C155.147 122.116 152.886 125.239 149.944 127.627C147.001 130.016 143.48 131.586 139.737 132.179C64.4508 144.015 1.46289 193.562 0.0208373 279.922C-1.39401 365.711 69.43 435.31 155.11 435.31H516.957C591.781 435.31 653 397.98 653 315.593C653 241.531 593.141 205.643 538.397 197.507Z" fill="#28B76B"/>
<path d="M333.285 272.298C333.285 272.298 288.357 294.353 288.357 330.193C288.357 355.061 308.481 375.223 333.285 375.223C358.089 375.223 378.213 355.061 378.213 330.193C378.213 312.958 367.725 297.57 355.749 287.002" stroke="white" stroke-width="13.0699" stroke-miterlimit="10" stroke-linecap="round"/>
<path d="M333.285 272.288C333.285 272.288 378.213 250.232 378.213 214.392C378.213 189.525 358.089 169.362 333.285 169.362C308.481 169.362 288.357 189.525 288.357 214.392C288.357 230.1 297.068 244.273 307.677 254.662C309.379 256.328 312.107 256.169 313.709 254.407L352.887 211.297" stroke="white" stroke-width="13.0699" stroke-miterlimit="10" stroke-linecap="round"/>
<path d="M257.041 87.1327L350.709 174.265L313.678 213.475" stroke="white" stroke-width="13.0699" stroke-linecap="round" stroke-linejoin="round"/>
<circle cx="313.678" cy="213.475" r="4.35663" fill="#28B76B"/>
<path d="M252.685 132.877L300.608 176.444" stroke="white" stroke-width="13.0699" stroke-linecap="round" stroke-linejoin="round"/>
<path d="M354.855 309.562C352.028 306.707 348.664 304.438 344.958 302.887C341.251 301.335 337.274 300.531 333.256 300.522C329.237 300.512 325.257 301.296 321.542 302.829C317.828 304.362 314.453 306.614 311.612 309.456C308.77 312.297 306.518 315.672 304.985 319.386C303.452 323.101 302.668 327.081 302.678 331.1C302.688 335.118 303.491 339.095 305.043 342.802C306.594 346.508 308.863 349.872 311.718 352.699C314.546 355.555 317.909 357.823 321.616 359.375C325.323 360.926 329.3 361.73 333.318 361.74C337.336 361.75 341.317 360.966 345.031 359.432C348.746 357.899 352.121 355.647 354.962 352.806C357.803 349.964 360.055 346.59 361.588 342.875C363.122 339.161 363.906 335.18 363.896 331.162C363.886 327.143 363.082 323.167 361.531 319.46C359.979 315.753 357.711 312.389 354.855 309.562V309.562ZM307.141 331.131C307.14 328.817 307.447 326.513 308.054 324.28C309.053 326.431 310.505 328.29 311.492 330.497C312.768 333.335 316.194 332.548 317.707 335.035C319.05 337.242 317.616 340.034 318.621 342.343C319.351 344.02 321.072 344.386 322.259 345.611C323.473 346.848 323.447 348.542 323.632 350.154C323.841 352.049 324.18 353.926 324.647 355.774C324.647 355.788 324.647 355.803 324.657 355.816C314.467 352.238 307.141 342.524 307.141 331.131ZM333.287 357.276C331.827 357.276 330.369 357.154 328.929 356.911C328.944 356.542 328.951 356.198 328.988 355.958C329.319 353.793 330.403 351.675 331.865 350.055C333.31 348.456 335.29 347.375 336.51 345.561C337.706 343.791 338.064 341.408 337.571 339.339C336.845 336.284 332.693 335.264 330.454 333.606C329.168 332.653 328.022 331.18 326.332 331.06C325.553 331.005 324.901 331.173 324.129 330.974C323.421 330.79 322.865 330.409 322.111 330.508C320.702 330.694 319.812 332.2 318.298 331.995C316.861 331.803 315.381 330.122 315.054 328.753C314.635 326.994 316.027 326.423 317.518 326.267C318.14 326.201 318.839 326.13 319.436 326.359C320.224 326.651 320.595 327.421 321.302 327.811C322.627 328.538 322.895 327.376 322.692 326.2C322.389 324.438 322.035 323.72 323.606 322.507C324.696 321.671 325.627 321.066 325.453 319.564C325.349 318.682 324.866 318.283 325.317 317.404C325.658 316.736 326.597 316.132 327.208 315.733C328.786 314.704 333.969 314.78 331.852 311.899C331.229 311.053 330.081 309.542 328.992 309.335C327.63 309.077 327.026 310.597 326.076 311.267C325.096 311.96 323.187 312.747 322.205 311.675C320.884 310.233 323.081 309.761 323.567 308.753C323.791 308.283 323.567 307.631 323.188 307.017C323.679 306.81 324.179 306.618 324.686 306.441C325.004 306.676 325.381 306.817 325.775 306.849C326.686 306.909 327.546 306.416 328.341 307.037C329.223 307.718 329.859 308.579 331.03 308.791C332.163 308.997 333.363 308.336 333.644 307.176C333.814 306.471 333.644 305.726 333.48 304.997C338.573 305.027 343.545 306.552 347.778 309.384C347.506 309.28 347.181 309.292 346.779 309.479C345.952 309.863 344.781 310.841 344.685 311.81C344.574 312.911 346.198 313.066 346.968 313.066C348.126 313.066 349.298 312.548 348.925 311.211C348.763 310.631 348.542 310.028 348.187 309.663C349.041 310.256 349.86 310.899 350.638 311.588C350.626 311.601 350.614 311.611 350.601 311.625C349.817 312.442 348.906 313.089 348.369 314.083C347.991 314.783 347.565 315.115 346.798 315.296C346.376 315.396 345.894 315.432 345.54 315.716C344.554 316.492 345.115 318.358 346.049 318.917C347.23 319.624 348.981 319.292 349.871 318.283C350.567 317.493 350.977 316.122 352.229 316.123C352.78 316.122 353.309 316.337 353.702 316.723C354.22 317.26 354.117 317.761 354.228 318.431C354.422 319.621 355.472 318.976 356.111 318.375C356.577 319.204 356.997 320.057 357.369 320.931C356.667 321.943 356.108 323.046 354.418 321.867C353.407 321.16 352.784 320.135 351.514 319.816C350.404 319.544 349.267 319.827 348.171 320.016C346.925 320.233 345.447 320.328 344.502 321.272C343.588 322.181 343.105 323.399 342.133 324.312C340.252 326.083 339.458 328.015 340.676 330.518C341.847 332.924 344.297 334.23 346.94 334.058C349.537 333.885 352.234 332.379 352.159 336.153C352.132 337.489 352.411 338.413 352.821 339.654C353.201 340.798 353.175 341.906 353.262 343.087C353.345 344.469 353.561 345.841 353.908 347.182C351.467 350.324 348.34 352.867 344.766 354.617C341.192 356.366 337.266 357.276 333.287 357.276Z" fill="white"/>
</svg>
