<svg width="653" height="436" viewBox="0 0 653 436" fill="none" xmlns="http://www.w3.org/2000/svg">
<path d="M538.397 197.507C533.848 196.792 529.644 194.652 526.388 191.396C523.131 188.14 520.992 183.935 520.276 179.386C502.482 67.4228 421.237 -6.10352e-05 326.497 -6.10352e-05C238.423 -6.10352e-05 179.761 57.7366 156.498 118.575C155.147 122.116 152.886 125.239 149.944 127.627C147.001 130.016 143.48 131.586 139.737 132.179C64.4508 144.015 1.46289 193.562 0.0208373 279.922C-1.39401 365.711 69.43 435.31 155.11 435.31H516.957C591.781 435.31 653 397.98 653 315.593C653 241.531 593.141 205.643 538.397 197.507Z" fill="#28B76B"/>
<path d="M327.41 253.108C327.41 253.108 257.504 287.425 257.504 343.191C257.504 381.883 288.816 413.255 327.41 413.255C366.003 413.255 397.315 381.883 397.315 343.191C397.315 316.373 380.997 292.43 362.363 275.986" stroke="white" stroke-width="20.3361" stroke-miterlimit="10" stroke-linecap="round"/>
<path d="M327.41 253.092C327.41 253.092 397.315 218.775 397.315 163.01C397.315 124.317 366.003 92.9454 327.41 92.9454C288.816 92.9454 257.504 124.317 257.504 163.01C257.504 187.45 271.058 209.503 287.565 225.667C290.213 228.259 294.458 228.012 296.95 225.27L357.91 158.193" stroke="white" stroke-width="20.3361" stroke-miterlimit="10" stroke-linecap="round"/>
<path d="M275 21L354.521 100.574L296.902 161.583" stroke="white" stroke-width="20.3361" stroke-linecap="round" stroke-linejoin="round"/>
<circle cx="296.902" cy="161.583" r="6.77871" fill="#28B76B"/>
<path d="M244.587 59.9119L282.979 97.5515" stroke="white" stroke-width="20.3361" stroke-linecap="round" stroke-linejoin="round"/>
<path d="M360.973 311.089C356.573 306.646 351.339 303.117 345.572 300.703C339.804 298.289 333.617 297.038 327.364 297.023C321.112 297.007 314.918 298.227 309.139 300.613C303.359 302.998 298.108 306.502 293.687 310.924C289.266 315.345 285.762 320.596 283.377 326.375C280.991 332.154 279.771 338.348 279.786 344.601C279.802 350.853 281.052 357.041 283.466 362.808C285.88 368.576 289.41 373.809 293.853 378.209C298.252 382.652 303.486 386.181 309.254 388.595C315.021 391.009 321.209 392.26 327.461 392.275C333.713 392.291 339.907 391.071 345.687 388.685C351.466 386.299 356.717 382.795 361.138 378.374C365.559 373.953 369.063 368.702 371.449 362.923C373.834 357.143 375.054 350.95 375.039 344.697C375.024 338.445 373.773 332.257 371.359 326.49C368.945 320.722 365.415 315.488 360.973 311.089V311.089ZM286.732 344.649C286.73 341.048 287.208 337.464 288.151 333.989C289.706 337.337 291.965 340.229 293.501 343.664C295.487 348.079 300.817 346.855 303.171 350.724C305.261 354.158 303.029 358.502 304.593 362.095C305.729 364.703 308.407 365.273 310.255 367.18C312.142 369.104 312.102 371.74 312.39 374.249C312.716 377.196 313.243 380.118 313.969 382.993C313.969 383.014 313.969 383.038 313.986 383.059C298.131 377.49 286.732 362.377 286.732 344.649ZM327.413 385.33C325.141 385.329 322.873 385.139 320.633 384.762C320.656 384.188 320.666 383.652 320.724 383.279C321.239 379.91 322.925 376.615 325.201 374.094C327.449 371.607 330.529 369.924 332.428 367.102C334.288 364.348 334.846 360.64 334.078 357.421C332.949 352.667 326.489 351.08 323.006 348.501C321.003 347.018 319.221 344.725 316.592 344.539C315.38 344.454 314.365 344.715 313.164 344.405C312.062 344.119 311.197 343.526 310.024 343.681C307.831 343.969 306.447 346.312 304.091 345.994C301.856 345.696 299.553 343.079 299.044 340.95C298.391 338.212 300.557 337.324 302.877 337.081C303.845 336.979 304.932 336.869 305.862 337.225C307.087 337.678 307.665 338.877 308.765 339.483C310.827 340.615 311.244 338.807 310.928 336.977C310.456 334.235 309.905 333.118 312.35 331.231C314.045 329.93 315.494 328.989 315.223 326.652C315.062 325.279 314.31 324.658 315.011 323.291C315.543 322.251 317.003 321.312 317.954 320.692C320.41 319.09 328.474 319.208 325.18 314.725C324.211 313.409 322.425 311.057 320.73 310.735C318.611 310.335 317.67 312.699 316.194 313.742C314.668 314.82 311.698 316.045 310.17 314.378C308.115 312.134 311.532 311.399 312.289 309.831C312.638 309.1 312.289 308.085 311.7 307.129C312.464 306.807 313.241 306.508 314.03 306.233C314.525 306.598 315.112 306.818 315.725 306.868C317.143 306.962 318.48 306.195 319.717 307.161C321.09 308.22 322.08 309.559 323.902 309.89C325.665 310.21 327.531 309.182 327.968 307.377C328.233 306.279 327.968 305.12 327.714 303.987C335.638 304.033 343.374 306.406 349.961 310.812C349.537 310.651 349.031 310.67 348.406 310.96C347.12 311.557 345.298 313.079 345.147 314.587C344.976 316.299 347.501 316.541 348.7 316.541C350.501 316.541 352.326 315.736 351.745 313.655C351.493 312.752 351.15 311.814 350.597 311.246C351.926 312.168 353.2 313.169 354.411 314.242C354.392 314.261 354.372 314.278 354.353 314.299C353.133 315.57 351.715 316.577 350.881 318.124C350.292 319.213 349.628 319.73 348.436 320.011C347.779 320.166 347.029 320.223 346.478 320.664C344.944 321.872 345.817 324.775 347.27 325.645C349.107 326.745 351.832 326.228 353.218 324.658C354.3 323.429 354.938 321.295 356.885 321.298C357.743 321.296 358.566 321.631 359.178 322.232C359.983 323.067 359.824 323.846 359.996 324.889C360.299 326.741 361.932 325.736 362.926 324.802C363.65 326.091 364.304 327.419 364.884 328.779C363.791 330.353 362.922 332.07 360.292 330.235C358.718 329.135 357.75 327.54 355.773 327.044C354.046 326.62 352.277 327.061 350.571 327.355C348.633 327.692 346.334 327.84 344.863 329.309C343.442 330.724 342.689 332.618 341.176 334.04C338.25 336.795 337.015 339.801 338.909 343.695C340.732 347.439 344.543 349.471 348.656 349.204C352.696 348.935 356.894 346.592 356.777 352.463C356.735 354.542 357.169 355.98 357.807 357.911C358.398 359.69 358.358 361.415 358.494 363.252C358.622 365.403 358.959 367.537 359.498 369.623C355.7 374.513 350.835 378.47 345.274 381.192C339.713 383.915 333.604 385.33 327.413 385.33Z" fill="white"/>
</svg>
